<?xml version="1.0" encoding="iso-8859-1"?>
<!-- Generator: Adobe Illustrator 16.0.0, SVG Export Plug-In . SVG Version: 6.00 Build 0)  -->
<!DOCTYPE svg PUBLIC "-//W3C//DTD SVG 1.1//EN" "http://www.w3.org/Graphics/SVG/1.1/DTD/svg11.dtd">
<svg version="1.1" id="Calque_1" xmlns="http://www.w3.org/2000/svg" xmlns:xlink="http://www.w3.org/1999/xlink" x="0px" y="0px"
	 width="148.813px" height="203.469px" viewBox="0 0 148.813 203.469" style="enable-background:new 0 0 148.813 203.469;"
	 xml:space="preserve">
<g>
	<defs>
		<rect id="SVGID_1_" x="-350.012" y="-60.445" width="851" height="315"/>
	</defs>
	<clipPath id="SVGID_2_">
		<use xlink:href="#SVGID_1_"  style="overflow:visible;"/>
	</clipPath>
	<g style="clip-path:url(#SVGID_2_);">
		<defs>
			<rect id="SVGID_3_" x="-350.012" y="-60.445" width="851" height="315"/>
		</defs>
		<clipPath id="SVGID_4_">
			<use xlink:href="#SVGID_3_"  style="overflow:visible;"/>
		</clipPath>
		<g style="opacity:0.92;clip-path:url(#SVGID_4_);">
			<g>
				<defs>
					<rect id="SVGID_5_" x="-350.012" y="-60.445" width="851" height="315.165"/>
				</defs>
				<clipPath id="SVGID_6_">
					<use xlink:href="#SVGID_5_"  style="overflow:visible;"/>
				</clipPath>
				<g style="clip-path:url(#SVGID_6_);">
					<defs>
						<rect id="SVGID_7_" x="-350.012" y="-60.445" width="851" height="315.166"/>
					</defs>
					<clipPath id="SVGID_8_">
						<use xlink:href="#SVGID_7_"  style="overflow:visible;"/>
					</clipPath>
					<g transform="matrix(1 0 0 1 0 0)" style="clip-path:url(#SVGID_8_);">
						
							<image style="overflow:visible;" width="6641" height="3734" xlink:href="E098DD06.png"  transform="matrix(0.1281 0 0 0.0844 -387.3438 226.8872)">
						</image>
					</g>
				</g>
			</g>
		</g>
		<path style="clip-path:url(#SVGID_4_);fill:none;stroke:#FFFFFF;stroke-width:3;" d="M130.139,85.486
			c7.175,11.025,6.995,25.684,0.646,40.603c-6.347,14.909-18.81,29.94-35.924,41.5c-17.113,11.56-35.556,17.403-51.506,17.553
			c-15.962,0.15-29.285-5.388-36.46-16.413c-7.175-11.025-6.995-25.684-0.646-40.604c6.346-14.909,18.809-29.94,35.923-41.499
			c17.114-11.56,35.556-17.404,51.507-17.554C109.641,68.922,122.964,74.461,130.139,85.486z"/>
		<path style="clip-path:url(#SVGID_4_);fill:none;stroke:#FFFFFF;stroke-width:3;" d="M117.908,91.508
			c5.605,8.615,5.301,20.238-0.022,32.214c-5.315,11.961-15.583,24.115-29.576,33.566c-13.992,9.452-28.979,14.354-41.863,14.687
			c-12.9,0.332-23.528-3.905-29.134-12.521c-5.606-8.614-5.3-20.237,0.022-32.214c5.317-11.962,15.584-24.115,29.576-33.566
			c13.994-9.452,28.979-14.354,41.864-14.687C101.674,78.655,112.302,82.893,117.908,91.508z"/>
		<path style="clip-path:url(#SVGID_4_);fill:none;stroke:#FFFFFF;stroke-width:3;" d="M125.341,88.521
			c6.404,9.841,6.117,23.041,0.195,36.569c-5.917,13.517-17.408,27.209-33.109,37.813c-15.701,10.605-32.555,16.059-47.079,16.35
			c-14.538,0.29-26.584-4.58-32.988-14.421c-6.404-9.841-6.118-23.042-0.196-36.57c5.917-13.517,17.409-27.208,33.11-37.813
			C60.975,79.844,77.828,74.39,92.353,74.1C106.891,73.81,118.937,78.68,125.341,88.521z"/>
		<path style="clip-path:url(#SVGID_4_);fill:none;stroke:#FFFFFF;stroke-width:3;" d="M112.25,95.11
			c4.716,7.247,4.271,17.207-0.604,27.622c-4.865,10.394-14.076,21.053-26.514,29.453c-12.438,8.4-25.661,12.895-36.953,13.414
			c-11.314,0.521-20.492-2.939-25.208-10.187c-4.716-7.246-4.272-17.206,0.604-27.621c4.865-10.393,14.076-21.052,26.514-29.453
			c12.438-8.401,25.662-12.895,36.953-13.415C98.355,84.402,107.534,87.863,112.25,95.11z"/>
		<path style="clip-path:url(#SVGID_4_);fill:none;stroke:#FFFFFF;stroke-width:3;" d="M105.122,99.359
			c3.93,6.038,3.536,14.396-0.634,23.201c-4.159,8.781-12.004,17.815-22.582,24.961c-10.577,7.145-21.8,10.988-31.359,11.473
			c-9.585,0.485-17.294-2.4-21.223-8.438c-3.929-6.038-3.536-14.396,0.634-23.2c4.159-8.782,12.003-17.816,22.581-24.962
			c10.578-7.144,21.801-10.988,31.36-11.472C93.483,90.437,101.192,93.321,105.122,99.359z"/>
		<path style="clip-path:url(#SVGID_4_);fill:none;stroke:#FFFFFF;stroke-width:3;" d="M98.03,104.429
			c2.76,4.239,2.15,10.488-1.597,17.407c-3.721,6.869-10.407,14.118-19.205,20.061c-8.799,5.943-17.956,9.395-25.615,10.212
			c-7.714,0.823-13.601-1.037-16.36-5.278c-2.76-4.24-2.15-10.488,1.597-17.407c3.721-6.868,10.407-14.118,19.205-20.061
			c8.799-5.942,17.956-9.396,25.615-10.212C89.384,98.328,95.271,100.188,98.03,104.429z"/>
		<path style="clip-path:url(#SVGID_4_);fill:none;stroke:#FFFFFF;stroke-width:3;" d="M91.767,108.885
			c0.83,1.275,1.087,2.952,0.709,5.003c-0.38,2.058-1.39,4.421-2.995,6.946c-3.209,5.045-8.683,10.555-15.681,15.281
			c-6.997,4.727-14.11,7.718-19.921,8.765c-2.908,0.523-5.438,0.552-7.446,0.106c-2.001-0.443-3.417-1.337-4.247-2.612
			s-1.087-2.952-0.709-5.003c0.38-2.058,1.39-4.421,2.995-6.945c3.21-5.046,8.683-10.556,15.68-15.282
			c6.998-4.727,14.111-7.718,19.922-8.765c2.908-0.523,5.438-0.552,7.446-0.106C89.521,106.716,90.937,107.61,91.767,108.885z"/>
		<path style="clip-path:url(#SVGID_4_);fill:#FFFFFF;" d="M30.936,30.188c-1.426-2.801-4.537-4.201-9.336-4.201H8.034l-1.652,17.07
			H29.37c1.661-1.671,2.62-3.804,2.871-6.399l0.05-0.507C32.517,33.816,32.064,31.828,30.936,30.188 M24.169,36.737
			c-0.08,0.813-0.376,1.571-0.894,2.269c-0.451,0.617-1.992,0.923-4.622,0.923H14.83l0.682-7.057h4.075
			C22.89,32.872,24.42,34.162,24.169,36.737"/>
		<path style="clip-path:url(#SVGID_4_);fill:none;stroke:#1C2AA9;stroke-miterlimit:10;" d="M30.936,30.188
			c-1.426-2.801-4.537-4.201-9.336-4.201H8.034l-1.652,17.07H29.37c1.661-1.671,2.62-3.804,2.871-6.399l0.05-0.507
			C32.517,33.816,32.064,31.828,30.936,30.188z M24.169,36.737c-0.08,0.813-0.376,1.571-0.894,2.269
			c-0.451,0.617-1.992,0.923-4.622,0.923H14.83l0.682-7.057h4.075C22.89,32.872,24.42,34.162,24.169,36.737z"/>
		<polygon style="clip-path:url(#SVGID_4_);fill:#FFFFFF;" points="56.849,32.958 57.527,25.986 36.527,25.986 34.875,43.057 
			54.786,43.057 55.328,37.41 43.483,37.41 43.915,32.958 		"/>
		<polygon style="clip-path:url(#SVGID_4_);fill:none;stroke:#1C2AA9;stroke-miterlimit:10;" points="56.849,32.958 57.527,25.986 
			36.527,25.986 34.875,43.057 54.786,43.057 55.328,37.41 43.483,37.41 43.915,32.958 		"/>
		<path style="clip-path:url(#SVGID_4_);fill:#FFFFFF;" d="M84.374,30.188c-1.42-2.801-4.532-4.201-9.336-4.201H61.477l-1.652,17.07
			h22.988c1.661-1.671,2.62-3.804,2.871-6.399l0.045-0.507C85.96,33.816,85.51,31.828,84.374,30.188 M77.613,36.737
			c-0.08,0.813-0.376,1.571-0.894,2.269c-0.451,0.617-1.993,0.923-4.627,0.923h-3.819l0.682-7.057h4.076
			C76.334,32.872,77.859,34.162,77.613,36.737"/>
		<path style="clip-path:url(#SVGID_4_);fill:none;stroke:#1C2AA9;stroke-miterlimit:10;" d="M84.374,30.188
			c-1.42-2.801-4.532-4.201-9.336-4.201H61.477l-1.652,17.07h22.988c1.661-1.671,2.62-3.804,2.871-6.399l0.045-0.507
			C85.96,33.816,85.51,31.828,84.374,30.188z M77.613,36.737c-0.08,0.813-0.376,1.571-0.894,2.269
			c-0.451,0.617-1.993,0.923-4.627,0.923h-3.819l0.682-7.057h4.076C76.334,32.872,77.859,34.162,77.613,36.737z"/>
		<polygon style="clip-path:url(#SVGID_4_);fill:#FFFFFF;" points="89.971,25.986 88.319,43.056 96.717,43.056 98.367,25.986 		"/>
		<polygon style="clip-path:url(#SVGID_4_);fill:none;stroke:#1C2AA9;stroke-miterlimit:10;" points="89.971,25.986 88.319,43.056 
			96.717,43.056 98.367,25.986 		"/>
		<polygon style="clip-path:url(#SVGID_4_);fill:#FFFFFF;" points="102.317,25.986 101.646,32.958 107.944,32.958 106.966,43.056 
			115.362,43.056 116.342,32.958 122.641,32.958 123.318,25.986 		"/>
		<polygon style="clip-path:url(#SVGID_4_);fill:none;stroke:#1C2AA9;stroke-miterlimit:10;" points="102.317,25.986 
			101.646,32.958 107.944,32.958 106.966,43.056 115.362,43.056 116.342,32.958 122.641,32.958 123.318,25.986 		"/>
		<polygon style="clip-path:url(#SVGID_4_);fill:#FFFFFF;" points="147.586,32.958 148.263,25.986 127.263,25.986 125.611,43.057 
			145.523,43.057 146.064,37.41 134.22,37.41 134.651,32.958 		"/>
		<polygon style="clip-path:url(#SVGID_4_);fill:none;stroke:#1C2AA9;stroke-miterlimit:10;" points="147.586,32.958 
			148.263,25.986 127.263,25.986 125.611,43.057 145.523,43.057 146.064,37.41 134.22,37.41 134.651,32.958 		"/>
		<polygon style="clip-path:url(#SVGID_4_);fill:#FFFFFF;" points="29.989,108.019 51.51,137.102 81.602,122.36 122.142,59.191 
			105.488,1 50.748,20.86 29.838,82.636 		"/>
		
			<polygon style="clip-path:url(#SVGID_4_);fill:none;stroke:#1C2AA9;stroke-width:2;stroke-linecap:round;stroke-linejoin:round;" points="
			29.989,108.019 51.51,137.102 81.602,122.36 122.142,59.191 105.488,1 50.748,20.86 29.838,82.636 		"/>
		
			<polyline style="clip-path:url(#SVGID_4_);fill:none;stroke:#1C2AA9;stroke-width:2;stroke-linecap:round;stroke-linejoin:round;" points="
			104.658,2.132 98.838,32.62 92.264,37.745 64.124,43.347 51.474,21.203 		"/>
		
			<polyline style="clip-path:url(#SVGID_4_);fill:none;stroke:#1C2AA9;stroke-width:2;stroke-linecap:round;stroke-linejoin:round;" points="
			51.748,136.605 68.141,114.47 90.957,50.545 90.832,38.898 		"/>
		
			<line style="clip-path:url(#SVGID_4_);fill:none;stroke:#1C2AA9;stroke-width:2;stroke-linecap:round;stroke-linejoin:round;" x1="64.484" y1="43.212" x2="51.255" y2="135.762"/>
		
			<polyline style="clip-path:url(#SVGID_4_);fill:none;stroke:#1C2AA9;stroke-width:2;stroke-linecap:round;stroke-linejoin:round;" points="
			98.479,32.755 110.127,45.734 121.774,58.713 		"/>
		
			<polygon style="clip-path:url(#SVGID_4_);fill:none;stroke:#1C2AA9;stroke-width:2;stroke-linecap:round;stroke-linejoin:round;" points="
			52.477,136.542 30.744,80.523 30.33,108.431 		"/>
		
			<polygon style="clip-path:url(#SVGID_4_);fill:none;stroke:#1C2AA9;stroke-width:2;stroke-linecap:round;stroke-linejoin:round;" points="
			78.466,110.814 92.858,104.303 81.603,122.361 76.921,124.112 		"/>
		
			<line style="clip-path:url(#SVGID_4_);fill:none;stroke:#1C2AA9;stroke-width:2;stroke-linecap:round;stroke-linejoin:round;" x1="68.062" y1="114.433" x2="91.849" y2="105.351"/>
		
			<polygon style="clip-path:url(#SVGID_4_);fill:none;stroke:#1C2AA9;stroke-width:2;stroke-linecap:round;stroke-linejoin:round;" points="
			106.643,41.19 90.386,53.63 90.837,39.511 98.478,32.755 		"/>
		<path style="clip-path:url(#SVGID_4_);fill:#FFFFFF;" d="M29.174,50.124c-1.426-2.801-4.537-4.196-9.336-4.196H6.271L4.479,64.448
			h21.321c2.791-1.817,4.347-4.432,4.678-7.855l0.05-0.507C30.755,53.752,30.303,51.764,29.174,50.124 M22.408,56.673
			c-0.08,0.813-0.376,1.571-0.894,2.269c-0.451,0.617-1.992,0.923-4.622,0.923h-3.824l0.682-7.051h4.075
			C21.127,52.814,22.659,54.098,22.408,56.673"/>
		<path style="clip-path:url(#SVGID_4_);fill:none;stroke:#1C2AA9;stroke-miterlimit:10;" d="M29.174,50.124
			c-1.426-2.801-4.537-4.196-9.336-4.196H6.271L4.479,64.448h21.321c2.791-1.817,4.347-4.432,4.678-7.855l0.05-0.507
			C30.755,53.752,30.303,51.764,29.174,50.124z M22.408,56.673c-0.08,0.813-0.376,1.571-0.894,2.269
			c-0.451,0.617-1.992,0.923-4.622,0.923h-3.824l0.682-7.051h4.075C21.127,52.814,22.659,54.098,22.408,56.673z"/>
		<polygon style="clip-path:url(#SVGID_4_);fill:#FFFFFF;" points="55.087,52.894 55.765,45.928 34.765,45.928 32.973,64.448 
			41.04,64.448 41.114,63.645 52.959,63.645 53.566,57.346 41.721,57.346 42.153,52.894 		"/>
		<polygon style="clip-path:url(#SVGID_4_);fill:none;stroke:#1C2AA9;stroke-miterlimit:10;" points="55.087,52.894 55.765,45.928 
			34.765,45.928 32.973,64.448 41.04,64.448 41.114,63.645 52.959,63.645 53.566,57.346 41.721,57.346 42.153,52.894 		"/>
		<path style="clip-path:url(#SVGID_4_);fill:#FFFFFF;" d="M82.612,50.124c-1.42-2.801-4.532-4.196-9.336-4.196H59.716
			l-1.792,18.521h21.321c2.79-1.817,4.347-4.432,4.678-7.855l0.045-0.507C84.198,53.752,83.748,51.764,82.612,50.124 M75.852,56.673
			c-0.08,0.813-0.376,1.571-0.893,2.269c-0.452,0.617-1.993,0.923-4.628,0.923h-3.819l0.682-7.051h4.076
			C74.572,52.814,76.098,54.098,75.852,56.673"/>
		<path style="clip-path:url(#SVGID_4_);fill:none;stroke:#1C2AA9;stroke-miterlimit:10;" d="M82.612,50.124
			c-1.42-2.801-4.532-4.196-9.336-4.196H59.716l-1.792,18.521h21.321c2.79-1.817,4.347-4.432,4.678-7.855l0.045-0.507
			C84.198,53.752,83.748,51.764,82.612,50.124z M75.852,56.673c-0.08,0.813-0.376,1.571-0.893,2.269
			c-0.452,0.617-1.993,0.923-4.628,0.923h-3.819l0.682-7.051h4.076C74.572,52.814,76.098,54.098,75.852,56.673z"/>
		<polygon style="clip-path:url(#SVGID_4_);fill:#FFFFFF;" points="88.209,45.928 86.417,64.449 94.814,64.449 96.605,45.928 		"/>
		<polygon style="clip-path:url(#SVGID_4_);fill:none;stroke:#1C2AA9;stroke-miterlimit:10;" points="88.209,45.928 86.417,64.449 
			94.814,64.449 96.605,45.928 		"/>
		<polygon style="clip-path:url(#SVGID_4_);fill:#FFFFFF;" points="100.557,45.928 99.884,52.894 106.183,52.894 105.063,64.449 
			113.46,64.449 114.58,52.894 120.879,52.894 121.557,45.928 		"/>
		<polygon style="clip-path:url(#SVGID_4_);fill:none;stroke:#1C2AA9;stroke-miterlimit:10;" points="100.557,45.928 99.884,52.894 
			106.183,52.894 105.063,64.449 113.46,64.449 114.58,52.894 120.879,52.894 121.557,45.928 		"/>
		<polygon style="clip-path:url(#SVGID_4_);fill:#FFFFFF;" points="145.829,52.894 146.501,45.928 125.501,45.928 123.71,64.448 
			131.775,64.448 131.85,63.645 143.695,63.645 144.303,57.346 132.463,57.346 132.89,52.894 		"/>
		<polygon style="clip-path:url(#SVGID_4_);fill:none;stroke:#1C2AA9;stroke-miterlimit:10;" points="145.829,52.894 
			146.501,45.928 125.501,45.928 123.71,64.448 131.775,64.448 131.85,63.645 143.695,63.645 144.303,57.346 132.463,57.346 
			132.89,52.894 		"/>
		<path style="clip-path:url(#SVGID_4_);fill:#FFFFFF;" d="M17.828,67.32c4.802,0,7.915,1.4,9.337,4.198
			c1.13,1.639,1.581,3.627,1.355,5.965l-0.049,0.503c-0.473,4.887-3.447,8.134-8.922,9.744c-1.503,0.335-3.115,0.503-4.837,0.503
			h-4.325l-0.822,8.483H1.418L4.264,67.32H17.828z M11.744,74.206l-0.683,7.056h3.822c2.632,0,4.173-0.307,4.625-0.924
			c0.516-0.7,0.813-1.456,0.892-2.268c0.249-2.575-1.279-3.864-4.582-3.864H11.744z"/>
		<path style="clip-path:url(#SVGID_4_);fill:none;stroke:#1C2AA9;stroke-miterlimit:10;" d="M17.828,67.32
			c4.802,0,7.915,1.4,9.337,4.198c1.13,1.639,1.581,3.627,1.355,5.965l-0.049,0.503c-0.473,4.887-3.447,8.134-8.922,9.744
			c-1.503,0.335-3.115,0.503-4.837,0.503h-4.325l-0.822,8.483H1.418L4.264,67.32H17.828z M11.744,74.206l-0.683,7.056h3.822
			c2.632,0,4.173-0.307,4.625-0.924c0.516-0.7,0.813-1.456,0.892-2.268c0.249-2.575-1.279-3.864-4.582-3.864H11.744z"/>
		<polygon style="clip-path:url(#SVGID_4_);fill:#FFFFFF;" points="53.757,67.319 53.083,74.291 40.147,74.291 39.716,78.741 
			51.56,78.741 50.95,85.041 39.107,85.041 38.66,89.66 51.595,89.66 50.912,96.715 29.914,96.715 32.759,67.319 		"/>
		<polygon style="clip-path:url(#SVGID_4_);fill:none;stroke:#1C2AA9;stroke-miterlimit:10;" points="53.757,67.319 53.083,74.291 
			40.147,74.291 39.716,78.741 51.56,78.741 50.95,85.041 39.107,85.041 38.66,89.66 51.595,89.66 50.912,96.715 29.914,96.715 
			32.759,67.319 		"/>
		<path style="clip-path:url(#SVGID_4_);fill:#FFFFFF;" d="M71.271,67.32c4.802,0,7.914,1.4,9.337,4.198
			c1.13,1.639,1.581,3.627,1.354,5.965l-0.049,0.503c-0.472,4.887-3.446,8.134-8.921,9.744c-1.503,0.335-3.115,0.503-4.837,0.503
			H63.83l-0.822,8.483H54.86l2.846-29.396H71.271z M65.187,74.206l-0.683,7.056h3.822c2.632,0,4.173-0.307,4.625-0.924
			c0.516-0.7,0.813-1.456,0.892-2.268c0.249-2.575-1.279-3.864-4.583-3.864H65.187z"/>
		<path style="clip-path:url(#SVGID_4_);fill:none;stroke:#1C2AA9;stroke-miterlimit:10;" d="M71.271,67.32
			c4.802,0,7.914,1.4,9.337,4.198c1.13,1.639,1.581,3.627,1.354,5.965l-0.049,0.503c-0.472,4.887-3.446,8.134-8.921,9.744
			c-1.503,0.335-3.115,0.503-4.837,0.503H63.83l-0.822,8.483H54.86l2.846-29.396H71.271z M65.187,74.206l-0.683,7.056h3.822
			c2.632,0,4.173-0.307,4.625-0.924c0.516-0.7,0.813-1.456,0.892-2.268c0.249-2.575-1.279-3.864-4.583-3.864H65.187z"/>
		<polygon style="clip-path:url(#SVGID_4_);fill:#FFFFFF;" points="83.355,96.716 86.201,67.32 94.6,67.32 91.755,96.716 		"/>
		<polygon style="clip-path:url(#SVGID_4_);fill:none;stroke:#1C2AA9;stroke-miterlimit:10;" points="83.355,96.716 86.201,67.32 
			94.6,67.32 91.755,96.716 		"/>
		<polygon style="clip-path:url(#SVGID_4_);fill:#FFFFFF;" points="119.547,67.319 118.872,74.291 112.573,74.291 110.403,96.715 
			102.004,96.715 104.174,74.291 97.874,74.291 98.549,67.319 		"/>
		<polygon style="clip-path:url(#SVGID_4_);fill:none;stroke:#1C2AA9;stroke-miterlimit:10;" points="119.547,67.319 
			118.872,74.291 112.573,74.291 110.403,96.715 102.004,96.715 104.174,74.291 97.874,74.291 98.549,67.319 		"/>
		<polygon style="clip-path:url(#SVGID_4_);fill:#FFFFFF;" points="144.493,67.319 143.818,74.291 130.884,74.291 130.453,78.741 
			142.296,78.741 141.687,85.041 129.843,85.041 129.396,89.66 142.331,89.66 141.648,96.715 120.65,96.715 123.495,67.319 		"/>
		<polygon style="clip-path:url(#SVGID_4_);fill:none;stroke:#1C2AA9;stroke-miterlimit:10;" points="144.493,67.319 
			143.818,74.291 130.884,74.291 130.453,78.741 142.296,78.741 141.687,85.041 129.843,85.041 129.396,89.66 142.331,89.66 
			141.648,96.715 120.65,96.715 123.495,67.319 		"/>
		<polygon style="clip-path:url(#SVGID_4_);fill:none;stroke:#FFFFFF;stroke-linecap:round;stroke-linejoin:round;" points="
			-124.349,444.803 -333.92,238.136 -333.92,-45.802 -124.349,160.865 		"/>
	</g>
	<g style="clip-path:url(#SVGID_2_);">
		<defs>
			<rect id="SVGID_9_" x="-350.012" y="-60.445" width="232.691" height="145.207"/>
		</defs>
		<clipPath id="SVGID_10_">
			<use xlink:href="#SVGID_9_"  style="overflow:visible;"/>
		</clipPath>
		<g style="clip-path:url(#SVGID_10_);">
			<defs>
				<rect id="SVGID_11_" x="-350.012" y="-60.445" width="232.692" height="145.207"/>
			</defs>
			<clipPath id="SVGID_12_">
				<use xlink:href="#SVGID_11_"  style="overflow:visible;"/>
			</clipPath>
			<g style="clip-path:url(#SVGID_12_);">
				
					<image style="overflow:visible;" width="4394" height="2742" xlink:href="E098DD0A.png"  transform="matrix(-0.053 0 0 -0.053 -117.3203 84.7627)">
				</image>
			</g>
		</g>
	</g>
	<g style="clip-path:url(#SVGID_2_);">
		<defs>
			<rect id="SVGID_13_" x="268.296" y="109.514" width="232.692" height="145.041"/>
		</defs>
		<clipPath id="SVGID_14_">
			<use xlink:href="#SVGID_13_"  style="overflow:visible;"/>
		</clipPath>
		<g style="clip-path:url(#SVGID_14_);">
			<defs>
				<rect id="SVGID_15_" x="268.297" y="109.513" width="232.691" height="145.207"/>
			</defs>
			<clipPath id="SVGID_16_">
				<use xlink:href="#SVGID_15_"  style="overflow:visible;"/>
			</clipPath>
			<g style="clip-path:url(#SVGID_16_);">
				
					<image style="overflow:visible;" width="4394" height="2742" xlink:href="E098DD0D.png"  transform="matrix(0.053 0 0 0.053 268.2969 109.5132)">
				</image>
			</g>
		</g>
	</g>
	<g style="clip-path:url(#SVGID_2_);">
		<defs>
			<rect id="SVGID_17_" x="-350.012" y="-60.445" width="851" height="315"/>
		</defs>
		<clipPath id="SVGID_18_">
			<use xlink:href="#SVGID_17_"  style="overflow:visible;"/>
		</clipPath>
		<path style="clip-path:url(#SVGID_18_);fill:none;stroke:#FFFFFF;stroke-width:0.7485;" d="M47.566,194.256
			c-1,1.048-1.541,2.319-1.62,3.816c-0.068,1.29,0.318,2.463,1.16,3.521c0.841,1.06,2.102,1.559,3.783,1.497
			c1.806-0.066,3.356-1.254,4.654-3.564l0.001-0.039l-3.195,0.117c-0.406,0.532-0.816,0.805-1.231,0.82l-0.125,0.004
			c-0.313,0.012-0.639-0.075-0.978-0.264c-0.362-0.187-0.626-0.549-0.792-1.086l0.002-0.039l6.532-0.238l0.011-0.186
			c0.041-0.79,0.018-1.451-0.074-1.984c-0.531-2.799-2.042-4.154-4.533-4.063C49.765,192.646,48.566,193.209,47.566,194.256z
			 M51.114,195.5c0.337-0.013,0.664,0.066,0.979,0.235c0.339,0.306,0.5,0.594,0.487,0.865l-0.001,0.027l-3.267,0.12
			C49.549,195.951,50.149,195.535,51.114,195.5z"/>
		<path style="clip-path:url(#SVGID_18_);fill:none;stroke:#FFFFFF;stroke-width:0.7485;" d="M67.069,194.311
			c-0.032-0.391-0.114-0.815-0.248-1.279c-0.63-1.499-1.675-2.126-3.134-1.879l-0.248,0.042c-1.017,0.172-1.884,0.849-2.603,2.032
			L60.738,192l-3.367,0.568l0.792,9.774l3.367-0.568l-0.436-5.366c-0.01-0.135-0.007-0.251,0.008-0.352
			c0.136-0.825,0.519-1.292,1.145-1.397l0.213-0.037c0.083-0.013,0.189-0.018,0.322-0.015c0.633,0.12,0.986,0.657,1.063,1.608
			l0.414,5.097l3.331-0.563L67.069,194.311z"/>
		<path style="clip-path:url(#SVGID_18_);fill:none;stroke:#FFFFFF;stroke-width:0.7485;" d="M80.127,191.481
			c0.254,0.892,0.197,1.582-0.168,2.07c-0.225,0.162-0.42,0.273-0.586,0.333l-0.205,0.076c-0.754,0.188-1.175,0.127-1.263-0.184
			c-0.174-0.078-0.401-0.57-0.685-1.478c-0.271-0.947-0.061-1.626,0.63-2.038c0.108-0.04,0.22-0.093,0.332-0.161
			c0.616-0.226,1.102-0.121,1.451,0.313c0.203,0.27,0.339,0.526,0.409,0.775L80.127,191.481z M76.372,188.791l-0.033,0.013
			l-0.182-0.638l-3.436,1.253l2.183,7.703l1.229,4.313l3.427-1.249l-1.145-4.022c0.822,0.343,1.597,0.382,2.321,0.118l0.445-0.162
			c1.354-0.494,2.258-1.573,2.709-3.238c0.184-0.864,0.146-1.747-0.11-2.651l-0.031-0.109c-0.552-1.937-1.748-3.04-3.591-3.313
			c-0.61-0.019-1.189,0.071-1.737,0.271C77.546,187.398,76.863,187.968,76.372,188.791z"/>
		<path style="clip-path:url(#SVGID_18_);fill:none;stroke:#FFFFFF;stroke-width:0.7485;" d="M86.677,182.713l-0.983-2.439
			l-3.315,1.574l0.983,2.44L86.677,182.713z M83.713,185.161l3.585,8.888l3.316-1.574l-3.586-8.89L83.713,185.161z"/>
		<path style="clip-path:url(#SVGID_18_);fill:none;stroke:#FFFFFF;stroke-width:0.7485;" d="M91.068,181.026
			c-1.525,1.444-1.899,2.914-1.119,4.412c0.236,0.454,0.571,0.82,1.009,1.099c0.693,0.402,1.745,0.418,3.156,0.042
			c1.234-0.432,1.935-0.492,2.095-0.184c0.114,0.222-0.064,0.47-0.537,0.745l-0.198,0.116c-0.909,0.528-1.94,0.806-3.097,0.832
			l-0.032,0.017c-0.029,0.025-0.1,0.873-0.211,2.545l0.016,0.033c1.702,0.132,3.305-0.239,4.809-1.114l0.237-0.14
			c0.24-0.14,0.542-0.344,0.905-0.614c1.549-1.398,1.923-2.869,1.12-4.411c-0.389-0.747-0.946-1.199-1.673-1.358
			c-0.59-0.148-1.578-0.04-2.968,0.322c-0.95,0.302-1.473,0.36-1.568,0.179c-0.09-0.322,0.025-0.577,0.351-0.767l0.198-0.115
			c0.356-0.207,0.836-0.385,1.436-0.533l1.255-0.32c0.034-1.677,0.036-2.542,0.008-2.598c-1.529,0.025-2.867,0.373-4.015,1.041
			l-0.375,0.218C91.647,180.603,91.379,180.787,91.068,181.026z"/>
		<path style="clip-path:url(#SVGID_18_);fill:none;stroke:#FFFFFF;stroke-width:0.7485;" d="M96.808,178.015l1.448,2.19l0.762-0.54
			l0.996,1.507c1.27,1.92,2.765,2.747,4.485,2.478c0.869-0.25,1.655-0.624,2.36-1.124l1.224-0.865l-1.412-2.136
			c-1.149,0.73-1.893,1.031-2.228,0.904c-0.431-0.158-0.764-0.416-1-0.773l-1.406-2.129l2.258-1.599l-1.448-2.189l-2.256,1.598
			l-1.899-2.873l-3.02,2.138l1.898,2.874L96.808,178.015z"/>
		<path style="clip-path:url(#SVGID_18_);fill:none;stroke:#FFFFFF;stroke-width:0.7485;" d="M105.311,173.3
			c-0.136,1.389,0.252,2.634,1.163,3.735c0.785,0.95,1.866,1.521,3.246,1.716c1.379,0.195,2.737-0.277,4.072-1.416
			c1.435-1.224,1.929-3.069,1.485-5.536l-0.024-0.029l-2.539,2.165c0.015,0.64-0.143,1.099-0.472,1.378l-0.1,0.086
			c-0.249,0.212-0.574,0.362-0.973,0.452c-0.419,0.104-0.871,0.021-1.357-0.246l-0.024-0.029l5.192-4.427l-0.112-0.137
			c-0.481-0.581-0.932-1.03-1.354-1.346c-2.26-1.619-4.38-1.585-6.361,0.103C106.06,170.735,105.444,171.912,105.311,173.3z
			 M109.025,171.859c0.268-0.229,0.586-0.386,0.956-0.474c0.475-0.007,0.795,0.09,0.961,0.29l0.018,0.022l-2.596,2.213
			C108.038,173.197,108.259,172.512,109.025,171.859z"/>
	</g>
</g>
</svg>
