<?xml version="1.0" encoding="UTF-8" standalone="no"?><!DOCTYPE svg PUBLIC "-//W3C//DTD SVG 1.1//EN" "http://www.w3.org/Graphics/SVG/1.1/DTD/svg11.dtd"><svg width="100%" height="100%" viewBox="0 0 972 639" version="1.1" xmlns="http://www.w3.org/2000/svg" xmlns:xlink="http://www.w3.org/1999/xlink" xml:space="preserve" xmlns:serif="http://www.serif.com/" style="fill-rule:evenodd;clip-rule:evenodd;"><g><clipPath id="_clip1"><rect x="244.004" y="25.159" width="483.993" height="588.682" clip-rule="nonzero"/></clipPath><g clip-path="url(#_clip1)"><path d="M706.287,255.153c25.652,39.415 25.009,91.819 2.313,145.152c-22.686,53.299 -67.241,107.029 -128.423,148.355c-61.177,41.322 -127.106,62.218 -184.127,62.75c-57.059,0.533 -104.686,-19.26 -130.334,-58.675c-25.653,-39.41 -25.009,-91.814 -2.313,-145.152c22.686,-53.299 67.241,-107.028 128.423,-148.355c61.177,-41.322 127.106,-62.213 184.122,-62.75c57.059,-0.537 104.691,19.26 130.339,58.675Z" style="fill:none;stroke:#fff;stroke-width:8.33px;"/><path d="M662.568,276.684c20.04,30.792 18.946,72.346 -0.082,115.159c-19.003,42.759 -55.704,86.205 -105.727,119.997c-50.027,33.783 -103.597,51.31 -149.657,52.496c-46.117,1.191 -84.11,-13.956 -104.149,-44.758c-20.044,-30.792 -18.951,-72.346 0.077,-115.158c19.004,-42.755 55.709,-86.211 105.732,-119.993c50.023,-33.792 103.593,-51.315 149.657,-52.505c46.113,-1.186 84.105,13.966 104.149,44.762Z" style="fill:none;stroke:#fff;stroke-width:8.33px;"/><path d="M689.137,266.004c22.89,35.181 21.873,82.368 0.702,130.731c-21.157,48.319 -62.237,97.263 -118.362,135.178c-56.13,37.91 -116.383,57.407 -168.303,58.443c-51.973,1.036 -95.032,-16.371 -117.926,-51.552c-22.895,-35.176 -21.874,-82.368 -0.702,-130.736c21.152,-48.315 62.232,-97.263 118.367,-135.173c56.125,-37.911 116.373,-57.408 168.293,-58.443c51.973,-1.041 95.037,16.371 117.931,51.552Z" style="fill:none;stroke:#fff;stroke-width:8.33px;"/><path d="M642.338,289.557c16.859,25.909 15.277,61.511 -2.154,98.744c-17.397,37.155 -50.327,75.259 -94.785,105.291c-44.468,30.032 -91.737,46.098 -132.106,47.957c-40.446,1.863 -73.255,-10.516 -90.115,-36.415c-16.86,-25.909 -15.273,-61.511 2.158,-98.744c17.397,-37.156 50.328,-75.259 94.79,-105.292c44.463,-30.032 91.732,-46.098 132.101,-47.956c40.446,-1.863 73.256,10.511 90.111,36.415Z" style="fill:none;stroke:#fff;stroke-width:8.33px;"/><path d="M616.856,304.751c14.049,21.582 12.64,51.46 -2.264,82.939c-14.866,31.392 -42.91,63.688 -80.723,89.23c-37.818,25.536 -77.935,39.28 -112.11,41.012c-34.261,1.732 -61.821,-8.58 -75.869,-30.163c-14.043,-21.587 -12.64,-51.455 2.265,-82.934c14.871,-31.402 42.914,-63.694 80.727,-89.24c37.814,-25.536 77.936,-39.28 112.105,-41.007c34.262,-1.737 61.826,8.575 75.869,30.163Z" style="fill:none;stroke:#fff;stroke-width:8.33px;"/><path d="M591.507,322.874c9.862,15.156 7.685,37.494 -5.715,62.222c-13.298,24.559 -37.194,50.473 -68.649,71.722c-31.455,21.239 -64.192,33.579 -91.572,36.502c-27.574,2.943 -48.62,-3.707 -58.487,-18.868c-9.862,-15.161 -7.684,-37.494 5.711,-62.227c13.303,-24.554 37.203,-50.473 68.658,-71.712c31.45,-21.249 64.187,-33.589 91.568,-36.507c27.573,-2.947 48.619,3.707 58.486,18.868Z" style="fill:none;stroke:#fff;stroke-width:8.33px;"/><path d="M569.111,338.805c2.967,4.558 3.891,10.554 2.536,17.88c-1.355,7.356 -4.97,15.81 -10.704,24.83c-11.474,18.041 -31.044,37.736 -56.053,54.635c-25.018,16.894 -50.448,27.583 -71.223,31.329c-10.395,1.878 -19.439,1.974 -26.616,0.382c-7.152,-1.582 -12.219,-4.781 -15.18,-9.339c-2.972,-4.559 -3.891,-10.55 -2.536,-17.881c1.355,-7.361 4.965,-15.81 10.704,-24.835c11.474,-18.036 31.039,-37.731 56.058,-54.63c25.013,-16.893 50.439,-27.588 71.213,-31.334c10.4,-1.868 19.444,-1.969 26.621,-0.382c7.157,1.587 12.219,4.786 15.18,9.345Z" style="fill:none;stroke:#fff;stroke-width:8.33px;"/><path d="M381.172,359.361l82.155,44.037l53.846,-67.473l24.849,-191.763l-102.862,-117.191l-105.621,106.54l19.328,166.899l28.305,58.951Z" style="fill:#fff;fill-rule:nonzero;stroke:#1c2aa9;stroke-width:6.25px;stroke-linecap:round;stroke-linejoin:round;"/><path d="M438.47,30.525l20.02,77.418l-9.664,19.173l-59.372,44.036l-53.846,-37.644" style="fill:none;stroke:#1c2aa9;stroke-width:6.25px;stroke-linecap:round;stroke-linejoin:round;"/><path d="M463.325,401.979l13.811,-69.607l-17.261,-174.003l-13.115,-26.989" style="fill:none;stroke:#1c2aa9;stroke-width:6.25px;stroke-linecap:round;stroke-linejoin:round;"/><path d="M390.146,170.441l71.107,230.114" style="fill:none;stroke:#1c2aa9;stroke-width:6.25px;stroke-linecap:round;stroke-linejoin:round;"/><path d="M457.803,108.649l41.419,17.402l41.423,17.402" style="fill:none;stroke:#1c2aa9;stroke-width:6.25px;stroke-linecap:round;stroke-linejoin:round;"/><path d="M464.96,401.029l-112.308,-106.535l29.771,65.455l82.537,41.08Z" style="fill:none;stroke:#1c2aa9;stroke-width:6.25px;stroke-linecap:round;stroke-linejoin:round;"/><path d="M497.152,312.487l26.349,-31.01l-6.324,54.451l-8.977,9.233l-11.048,-32.674Z" style="fill:none;stroke:#1c2aa9;stroke-width:6.25px;stroke-linecap:round;stroke-linejoin:round;"/><path d="M476.907,332.373l45.401,-47.347" style="fill:none;stroke:#1c2aa9;stroke-width:6.25px;stroke-linecap:round;stroke-linejoin:round;"/><path d="M486.103,119.304l-24.157,46.877l-14.503,-33.381l10.356,-24.152l28.304,10.656Z" style="fill:none;stroke:#1c2aa9;stroke-width:6.25px;stroke-linecap:round;stroke-linejoin:round;"/></g></g></svg>