<?xml version="1.0" encoding="iso-8859-1"?>
<!-- Generator: Adobe Illustrator 16.0.0, SVG Export Plug-In . SVG Version: 6.00 Build 0)  -->
<!DOCTYPE svg PUBLIC "-//W3C//DTD SVG 1.1//EN" "http://www.w3.org/Graphics/SVG/1.1/DTD/svg11.dtd">
<svg version="1.1" id="Calque_1" xmlns="http://www.w3.org/2000/svg" xmlns:xlink="http://www.w3.org/1999/xlink" x="0px" y="0px"
	 width="94.304px" height="138.102px" viewBox="0 0 94.304 138.102" style="enable-background:new 0 0 94.304 138.102;"
	 xml:space="preserve">
<g>
	<defs>
		<rect id="SVGID_1_" x="-371.535" y="-97.762" width="851" height="315"/>
	</defs>
	<clipPath id="SVGID_2_">
		<use xlink:href="#SVGID_1_"  style="overflow:visible;"/>
	</clipPath>
	<g style="clip-path:url(#SVGID_2_);">
		<defs>
			<rect id="SVGID_3_" x="-371.535" y="-97.762" width="851" height="315"/>
		</defs>
		<clipPath id="SVGID_4_">
			<use xlink:href="#SVGID_3_"  style="overflow:visible;"/>
		</clipPath>
		<g style="opacity:0.92;clip-path:url(#SVGID_4_);">
			<g>
				<defs>
					<rect id="SVGID_5_" x="-371.535" y="-97.762" width="851" height="315.165"/>
				</defs>
				<clipPath id="SVGID_6_">
					<use xlink:href="#SVGID_5_"  style="overflow:visible;"/>
				</clipPath>
				<g style="clip-path:url(#SVGID_6_);">
					<defs>
						<rect id="SVGID_7_" x="-371.535" y="-97.762" width="851" height="315.166"/>
					</defs>
					<clipPath id="SVGID_8_">
						<use xlink:href="#SVGID_7_"  style="overflow:visible;"/>
					</clipPath>
					<g transform="matrix(1 0 0 1 0 0)" style="clip-path:url(#SVGID_8_);">

							<image style="overflow:visible;" width="6641" height="3734" xlink:href="E098DD05.png"  transform="matrix(0.1281 0 0 0.0844 -408.8672 189.5703)">
						</image>
					</g>
				</g>
			</g>
		</g>
		<polygon style="clip-path:url(#SVGID_4_);fill:#FFFFFF;" points="1.151,108.02 22.672,137.102 52.764,122.359 93.304,59.191
			76.65,1 21.91,20.86 1,82.637 		"/>

			<polygon style="clip-path:url(#SVGID_4_);fill:none;stroke:#F1D199;stroke-width:2;stroke-linecap:round;stroke-linejoin:round;" points="
			1.151,108.02 22.672,137.102 52.764,122.359 93.304,59.191 76.65,1 21.91,20.86 1,82.637 		"/>

			<polyline style="clip-path:url(#SVGID_4_);fill:none;stroke:#F1D199;stroke-width:2;stroke-linecap:round;stroke-linejoin:round;" points="
			75.82,2.132 70,32.62 63.426,37.745 35.286,43.347 22.636,21.203 		"/>

			<polyline style="clip-path:url(#SVGID_4_);fill:none;stroke:#F1D199;stroke-width:2;stroke-linecap:round;stroke-linejoin:round;" points="
			22.91,136.605 39.303,114.471 62.119,50.545 61.994,38.898 		"/>

			<line style="clip-path:url(#SVGID_4_);fill:none;stroke:#F1D199;stroke-width:2;stroke-linecap:round;stroke-linejoin:round;" x1="35.646" y1="43.212" x2="22.417" y2="135.762"/>

			<polyline style="clip-path:url(#SVGID_4_);fill:none;stroke:#F1D199;stroke-width:2;stroke-linecap:round;stroke-linejoin:round;" points="
			69.641,32.755 81.289,45.734 92.937,58.713 		"/>

			<polygon style="clip-path:url(#SVGID_4_);fill:none;stroke:#F1D199;stroke-width:2;stroke-linecap:round;stroke-linejoin:round;" points="
			23.639,136.543 1.906,80.523 1.492,108.432 		"/>

			<polygon style="clip-path:url(#SVGID_4_);fill:none;stroke:#F1D199;stroke-width:2;stroke-linecap:round;stroke-linejoin:round;" points="
			49.628,110.814 64.021,104.303 52.765,122.361 48.083,124.111 		"/>

			<line style="clip-path:url(#SVGID_4_);fill:none;stroke:#F1D199;stroke-width:2;stroke-linecap:round;stroke-linejoin:round;" x1="39.224" y1="114.434" x2="63.011" y2="105.352"/>

			<polygon style="clip-path:url(#SVGID_4_);fill:none;stroke:#F1D199;stroke-width:2;stroke-linecap:round;stroke-linejoin:round;" points="
			77.805,41.19 61.548,53.63 61.999,39.511 69.64,32.755 		"/>
		<polygon style="clip-path:url(#SVGID_4_);fill:none;stroke:#FFFFFF;stroke-linecap:round;stroke-linejoin:round;" points="
			-145.872,407.486 -355.443,200.819 -355.443,-83.119 -145.872,123.548 		"/>
	</g>
	<g style="clip-path:url(#SVGID_2_);">
		<defs>
			<rect id="SVGID_9_" x="-371.535" y="-97.762" width="232.691" height="145.207"/>
		</defs>
		<clipPath id="SVGID_10_">
			<use xlink:href="#SVGID_9_"  style="overflow:visible;"/>
		</clipPath>
		<g style="clip-path:url(#SVGID_10_);">
			<defs>
				<rect id="SVGID_11_" x="-371.535" y="-97.762" width="232.692" height="145.207"/>
			</defs>
			<clipPath id="SVGID_12_">
				<use xlink:href="#SVGID_11_"  style="overflow:visible;"/>
			</clipPath>
			<g style="clip-path:url(#SVGID_12_);">

					<image style="overflow:visible;" width="4394" height="2742" xlink:href="E098DD0A.png"  transform="matrix(-0.053 0 0 -0.053 -138.8438 47.4458)">
				</image>
			</g>
		</g>
	</g>
	<g style="clip-path:url(#SVGID_2_);">
		<defs>
			<rect id="SVGID_13_" x="246.772" y="72.197" width="232.692" height="145.041"/>
		</defs>
		<clipPath id="SVGID_14_">
			<use xlink:href="#SVGID_13_"  style="overflow:visible;"/>
		</clipPath>
		<g style="clip-path:url(#SVGID_14_);">
			<defs>
				<rect id="SVGID_15_" x="246.773" y="72.196" width="232.691" height="145.207"/>
			</defs>
			<clipPath id="SVGID_16_">
				<use xlink:href="#SVGID_15_"  style="overflow:visible;"/>
			</clipPath>
			<g style="clip-path:url(#SVGID_16_);">

					<image style="overflow:visible;" width="4394" height="2742" xlink:href="E098DD0D.png"  transform="matrix(0.053 0 0 0.053 246.7734 72.1963)">
				</image>
			</g>
		</g>
	</g>
	<g style="clip-path:url(#SVGID_2_);">
		<defs>
			<rect id="SVGID_17_" x="-371.535" y="-97.762" width="851" height="315"/>
		</defs>
		<clipPath id="SVGID_18_">
			<use xlink:href="#SVGID_17_"  style="overflow:visible;"/>
		</clipPath>
	</g>
</g>
</svg>
